<mxfile host="app.diagrams.net" modified="2023-08-31T22:07:57.254Z" agent="Mozilla/5.0 (Macintosh; Intel Mac OS X 10_15_7) AppleWebKit/537.36 (KHTML, like Gecko) Chrome/116.0.0.0 Safari/537.36" version="21.7.1" etag="sQ2GlEeY6VgwtYf1PtdP" type="github">
  <diagram name="Page-1" id="f31GO60zSbWaj2c_SM3a">
    <mxGraphModel>
      <root>
        <mxCell id="0" />
        <mxCell id="1" parent="0" />
      </root>
    </mxGraphModel>
  </diagram>
</mxfile>
